<svg width="40" height="40" viewBox="0 0 40 40" fill="none" xmlns="http://www.w3.org/2000/svg">
<path d="M20 18.1663C18.9833 18.1663 18.1667 18.983 18.1667 19.9997C18.1667 21.0163 18.9833 21.833 20 21.833C21.0167 21.833 21.8333 21.0163 21.8333 19.9997C21.8333 18.983 21.0167 18.1663 20 18.1663ZM20 3.33301C10.8 3.33301 3.33333 10.7997 3.33333 19.9997C3.33333 29.1997 10.8 36.6663 20 36.6663C29.2 36.6663 36.6667 29.1997 36.6667 19.9997C36.6667 10.7997 29.2 3.33301 20 3.33301ZM23.65 23.6497L9.99999 29.9997L16.35 16.3497L30 9.99967L23.65 23.6497Z" fill="#F77F00"/>
</svg>
