<svg width="80" height="80" viewBox="0 0 80 80" fill="none" xmlns="http://www.w3.org/2000/svg">
<path d="M63.3333 10H49.4C48 6.13334 44.3333 3.33334 40 3.33334C35.6667 3.33334 32 6.13334 30.6 10H16.6667C13 10 10 13 10 16.6667V63.3333C10 67 13 70 16.6667 70H63.3333C67 70 70 67 70 63.3333V16.6667C70 13 67 10 63.3333 10ZM40 10C41.8333 10 43.3333 11.5 43.3333 13.3333C43.3333 15.1667 41.8333 16.6667 40 16.6667C38.1667 16.6667 36.6667 15.1667 36.6667 13.3333C36.6667 11.5 38.1667 10 40 10ZM40 23.3333C45.5333 23.3333 50 27.8 50 33.3333C50 38.8667 45.5333 43.3333 40 43.3333C34.4667 43.3333 30 38.8667 30 33.3333C30 27.8 34.4667 23.3333 40 23.3333ZM60 63.3333H20V58.6667C20 52 33.3333 48.3333 40 48.3333C46.6667 48.3333 60 52 60 58.6667V63.3333Z" fill="#F77F00"/>
</svg>
