<svg width="40" height="40" viewBox="0 0 40 40" fill="none" xmlns="http://www.w3.org/2000/svg">
<path d="M19.9836 3.3335C10.7836 3.3335 3.31691 10.8002 3.31691 20.0002C3.31691 29.2002 10.7836 36.6668 19.9836 36.6668C29.1836 36.6668 36.6502 29.2002 36.6502 20.0002C36.6502 10.8002 29.1836 3.3335 19.9836 3.3335ZM26.0002 13.9002C27.7836 13.9002 29.2169 15.3335 29.2169 17.1168C29.2169 18.9002 27.7836 20.3335 26.0002 20.3335C24.2169 20.3335 22.7836 18.9002 22.7836 17.1168C22.7669 15.3335 24.2169 13.9002 26.0002 13.9002ZM16.0002 11.2668C18.1669 11.2668 19.9336 13.0335 19.9336 15.2002C19.9336 17.3668 18.1669 19.1335 16.0002 19.1335C13.8336 19.1335 12.0669 17.3668 12.0669 15.2002C12.0669 13.0168 13.8169 11.2668 16.0002 11.2668ZM16.0002 26.4835V32.7335C12.0002 31.4835 8.83358 28.4002 7.43358 24.4668C9.18358 22.6002 13.5502 21.6502 16.0002 21.6502C16.8836 21.6502 18.0002 21.7835 19.1669 22.0168C16.4336 23.4668 16.0002 25.3835 16.0002 26.4835ZM19.9836 33.3335C19.5336 33.3335 19.1002 33.3168 18.6669 33.2668V26.4835C18.6669 24.1168 23.5669 22.9335 26.0002 22.9335C27.7836 22.9335 30.8669 23.5835 32.4002 24.8502C30.4502 29.8002 25.6336 33.3335 19.9836 33.3335Z" fill="#F77F00"/>
</svg>
