<svg width="40" height="40" viewBox="0 0 40 40" fill="none" xmlns="http://www.w3.org/2000/svg">
<path d="M20 13.3337C16.3167 13.3337 13.3334 16.317 13.3334 20.0003C13.3334 23.6837 16.3167 26.667 20 26.667C23.6834 26.667 26.6667 23.6837 26.6667 20.0003C26.6667 16.317 23.6834 13.3337 20 13.3337ZM34.9 18.3337C34.1334 11.3837 28.6167 5.86699 21.6667 5.10032V1.66699H18.3334V5.10032C11.3834 5.86699 5.86669 11.3837 5.10002 18.3337H1.66669V21.667H5.10002C5.86669 28.617 11.3834 34.1337 18.3334 34.9003V38.3337H21.6667V34.9003C28.6167 34.1337 34.1334 28.617 34.9 21.667H38.3334V18.3337H34.9ZM20 31.667C13.55 31.667 8.33335 26.4503 8.33335 20.0003C8.33335 13.5503 13.55 8.33366 20 8.33366C26.45 8.33366 31.6667 13.5503 31.6667 20.0003C31.6667 26.4503 26.45 31.667 20 31.667Z" fill="#F77F00"/>
</svg>
