<svg width="40" height="40" viewBox="0 0 40 40" fill="none" xmlns="http://www.w3.org/2000/svg">
<path d="M20 3.3335C10.8 3.3335 3.33333 10.8002 3.33333 20.0002C3.33333 29.2002 10.8 36.6668 20 36.6668C29.2 36.6668 36.6667 29.2002 36.6667 20.0002C36.6667 10.8002 29.2 3.3335 20 3.3335ZM20 8.3335C22.7667 8.3335 25 10.5668 25 13.3335C25 16.1002 22.7667 18.3335 20 18.3335C17.2333 18.3335 15 16.1002 15 13.3335C15 10.5668 17.2333 8.3335 20 8.3335ZM20 32.0002C15.8333 32.0002 12.15 29.8668 10 26.6335C10.05 23.3168 16.6667 21.5002 20 21.5002C23.3167 21.5002 29.95 23.3168 30 26.6335C27.85 29.8668 24.1667 32.0002 20 32.0002Z" fill="#F77F00"/>
</svg>
